<?xml version="1.0" encoding="UTF-8"?>
<svg xmlns="http://www.w3.org/2000/svg" xmlns:xlink="http://www.w3.org/1999/xlink" width="50px" height="50px" viewBox="0 0 50 50" version="1.1">
<g id="surface1">
<path style=" stroke:none;fill-rule:nonzero;fill:rgb(0%,0%,0%);fill-opacity:1;" d="M 50 21.875 L 43.75 21.875 L 43.75 15.625 L 40.625 15.625 L 40.625 21.875 L 34.375 21.875 L 34.375 25 L 40.625 25 L 40.625 31.25 L 43.75 31.25 L 43.75 25 L 50 25 Z M 15.625 28.125 L 24.464844 28.125 C 23.136719 31.867188 19.597656 34.371094 15.625 34.375 C 10.457031 34.375 6.25 30.167969 6.25 25 C 6.25 19.832031 10.457031 15.625 15.625 15.625 C 17.867188 15.625 20.023438 16.429688 21.695312 17.886719 L 25.804688 13.175781 C 22.980469 10.71875 19.367188 9.371094 15.625 9.375 C 7.007812 9.375 0 16.382812 0 25 C 0 33.617188 7.007812 40.625 15.625 40.625 C 24.242188 40.625 31.25 33.617188 31.25 25 L 31.25 21.875 L 15.625 21.875 Z M 15.625 28.125 "/>
</g>
</svg>
