<?xml version="1.0" encoding="utf-8"?>
<!-- Generator: Adobe Illustrator 21.0.0, SVG Export Plug-In . SVG Version: 6.00 Build 0)  -->
<svg version="1.1" id="Capa_1" xmlns="http://www.w3.org/2000/svg" xmlns:xlink="http://www.w3.org/1999/xlink" x="0px" y="0px"
	 viewBox="0 0 1024 1024" style="enable-background:new 0 0 1024 1024;" xml:space="preserve">
<style type="text/css">
	.st0{fill:#FFFFFF;}
</style>
<path class="st0" d="M135.7,699.5h752.6c13.4,0,26.9-5.4,37.6-16.1c10.8-10.7,16.1-24.1,16.1-37.5c0-16.1-5.4-26.8-16.1-37.5
	s-21.5-16.1-37.6-16.1h-5.4c-10.8-72.3-40.3-136.6-88.7-192.8c-48.4-56.2-107.5-93.7-177.4-115.2c2.7-5.4,2.7-10.7,2.7-13.4
	c0-29.5-10.8-56.2-32.3-75c-18.8-21.4-45.7-32.1-75.3-32.1s-56.4,10.7-75.3,32.2c-18.8,21.4-32.3,45.5-32.3,75V287
	c-69,19-130.8,58.2-177.4,112.5c-48.4,56.2-75.3,120.5-86,192.8h-5.4c-8.1,0-13.4,2.7-21.5,5.4c-8.1,2.7-13.4,8-16.1,10.7
	c-5.4,5.3-8.1,10.7-10.8,16.1c-3.4,6.7-5.2,14-5.4,21.4c0,13.4,5.4,26.8,16.1,37.5S122.2,699.5,135.7,699.5 M512,217.4
	c13.4,0,26.9,5.4,37.6,16.1c10.8,10.7,16.1,21.4,16.1,37.5v2.7c-10.8,0-18.8-2.7-26.9-2.7h-53.8c-8.1,0-18.8,2.7-26.9,2.7V271
	c0-13.4,5.4-26.8,16.1-37.5C485.1,222.8,498.5,217.4,512,217.4 M286.2,504c16.1-26.8,40.3-50.9,64.5-72.3
	c24.2-21.4,56.4-34.8,88.7-42.8h8.1c8.1,0,13.4,2.7,18.8,8c5.4,5.3,8.1,10.7,8.1,18.7c0,5.4,0,8-2.7,13.4c-2.7,2.7-5.4,8-8,10.7
	c-2.7,2.7-8.1,5.4-10.8,5.4c-16.1,5.3-32.3,10.7-48.4,21.4c-14.9,7.6-28.5,17.5-40.3,29.5c-12.9,10.5-23.8,23.2-32.3,37.5
	c-2.7,2.7-2.7,5.4-5.4,8c-2.7,2.7-5.4,5.4-8.1,5.4c-2.7,2.7-8.1,2.7-10.8,2.7c-8.1,0-13.4-2.7-18.8-8c-5.4-5.3-8-10.7-8-18.7
	S283.5,509.3,286.2,504 M888.3,753H135.7c-13.4,0-26.9,5.4-37.6,16.1c-10.8,10.7-16.1,21.4-16.1,37.5c0,16.1,5.4,26.8,16.1,37.5
	c10.7,10.7,24.2,16.1,37.6,16.1h752.6c13.4,0,26.9-5.4,37.6-16.1c10.8-10.7,16.1-24.1,16.1-37.5c0-16.1-5.4-26.8-16.1-37.5
	C915.2,758.4,901.8,753,888.3,753"/>
</svg>
