<?xml version="1.0" encoding="utf-8"?>
<!-- Generator: Adobe Illustrator 21.0.0, SVG Export Plug-In . SVG Version: 6.00 Build 0)  -->
<svg version="1.1" id="Capa_1" xmlns="http://www.w3.org/2000/svg" xmlns:xlink="http://www.w3.org/1999/xlink" x="0px" y="0px"
	 viewBox="0 0 52.8 52.8" style="enable-background:new 0 0 52.8 52.8;" xml:space="preserve">
<style type="text/css">
	.st0{fill:#8C6A57;}
</style>
<polygon class="st0" points="33.2,0 33.2,0 26.5,3.5 19.7,0 19.7,0 19.7,0 23.2,6.8 19.7,13.6 19.7,13.6 19.7,13.6 26.5,10.1 
	33.2,13.6 33.2,13.6 33.3,13.6 29.7,6.8 33.3,0 "/>
<polygon class="st0" points="26.5,42.8 19.7,39.2 23.2,46 19.7,52.8 26.5,49.3 33.2,52.8 29.7,46 33.2,39.2 "/>
<polygon class="st0" points="6.8,23.1 0,19.6 3.5,26.4 0,33.2 6.8,29.7 13.6,33.2 10.1,26.4 13.6,19.6 "/>
<polygon class="st0" points="46,23.1 39.2,19.6 42.8,26.4 39.2,33.2 46,29.7 52.8,33.2 49.3,26.4 52.8,19.6 "/>
</svg>
