<?xml version="1.0" encoding="utf-8"?>
<!-- Generator: Adobe Illustrator 21.0.0, SVG Export Plug-In . SVG Version: 6.00 Build 0)  -->
<svg version="1.1" id="Capa_1" xmlns="http://www.w3.org/2000/svg" xmlns:xlink="http://www.w3.org/1999/xlink" x="0px" y="0px"
	 viewBox="0 0 93 26.3" style="enable-background:new 0 0 93 26.3;" xml:space="preserve">
<style type="text/css">
	.st0{fill:#8C6A57;}
</style>
<polygon class="st0" points="33.4,7.5 33.4,7.5 26.6,11 19.9,7.5 19.9,7.5 19.9,7.5 23.4,14.3 19.9,21 19.9,21 19.9,21 26.6,17.5 
	33.4,21 33.4,21 33.4,21 29.9,14.3 33.4,7.5 "/>
<polygon class="st0" points="66.4,11 59.6,7.5 63.1,14.3 59.6,21 66.4,17.5 73.1,21 69.6,14.3 73.1,7.5 "/>
<polygon class="st0" points="86.2,11 79.4,7.5 82.9,14.3 79.4,21 86.2,17.5 93,21 89.5,14.3 93,7.5 "/>
<polygon class="st0" points="6.8,11 0,7.5 3.5,14.3 0,21 6.8,17.5 13.6,21 10.1,14.3 13.6,7.5 "/>
<polygon class="st0" points="46.5,11 39.7,7.5 43.2,14.3 39.7,21 46.5,17.5 53.3,21 49.8,14.3 53.3,7.5 "/>
</svg>
